
<svg width="512" height="512" viewBox="0 0 512 512" fill="none" xmlns="http://www.w3.org/2000/svg">
  <circle cx="256" cy="256" r="256" fill="#4BD64B"/>
  <path d="M206.1 332.5V179.5H235.6V215.3C241.2 203.9 248.2 195.2 256.6 189.1C265 183 274.8 180 286 180C288.7 180 290.9 180.1 292.7 180.4C294.5 180.6 296.7 181 299.2 181.5L292.8 209.7C290.5 209 288.5 208.5 286.8 208.2C285.1 207.9 283 207.7 280.6 207.7C269.3 207.7 260.2 211.7 253.1 219.6C246 227.5 242.5 238.5 242.5 252.7V332.5H206.1Z" fill="white"/>
  <path d="M328.9 255C328.9 240.5 331.5 227.9 336.6 217C341.7 206.1 348.6 197.9 357.4 192.3C366.2 186.7 376.1 183.9 387 183.9C396.4 183.9 404.4 186 411.2 190.1C418 194.2 423.5 199.5 427.6 206V186.8H464V332.5H427.6V314C423.3 320.5 417.6 325.9 410.6 330.2C403.5 334.5 395.4 336.7 386.2 336.7C375.5 336.7 365.7 333.8 356.9 328.1C348.2 322.3 341.3 313.9 336.3 302.9C331.4 291.9 328.9 279.5 328.9 264.8V255ZM427.6 263.5V255C427.6 246.3 426 238.6 422.7 231.9C419.4 225.2 414.9 220 409.2 216.3C403.5 212.5 397.1 210.6 390.1 210.6C383.4 210.6 377.4 212.5 371.9 216.2C366.5 219.9 362.2 225.1 359 231.8C355.8 238.5 354.2 246.2 354.2 254.8V264.8C354.2 273.2 355.9 280.8 359.2 287.7C362.5 294.5 367 299.8 372.5 303.6C378.1 307.3 384.1 309.2 390.7 309.2C397.7 309.2 404.1 307.3 409.8 303.6C415.5 299.8 420 294.7 423.2 288.3C426.5 281.8 427.6 274.2 427.6 265.6V263.5Z" fill="white"/>
</svg>
